<?xml version="1.0" encoding="utf-8"?>
<!-- Generator: Adobe Illustrator 15.0.0, SVG Export Plug-In . SVG Version: 6.00 Build 0)  -->
<!DOCTYPE svg PUBLIC "-//W3C//DTD SVG 1.1//EN" "http://www.w3.org/Graphics/SVG/1.1/DTD/svg11.dtd">
<svg version="1.1" id="Layer_1" xmlns="http://www.w3.org/2000/svg" xmlns:xlink="http://www.w3.org/1999/xlink" x="0px" y="0px"
	 width="28.346px" height="28.346px" viewBox="0 0 28.346 28.346" enable-background="new 0 0 28.346 28.346" xml:space="preserve">
<g>
	<circle fill="#ffffff" cx="15.853" cy="13.692" r="1.142"/>
	<circle fill="#ffffff" cx="22.107" cy="13.691" r="1.057"/>
	<path fill="#ffffff" d="M23.109,3.589H5.237c-2.633,0-4.768,2.136-4.768,4.77v9.256c0,2.634,2.135,4.769,4.768,4.769h6.719
		l2.217,4.374l2.512-4.374h6.424c2.633,0,4.768-2.135,4.768-4.769V8.359C27.876,5.725,25.741,3.589,23.109,3.589z M6.388,16.252
		c-0.486,0-0.94-0.135-1.331-0.366v0.332H3.27V8.962h1.787v2.398c0.391-0.23,0.845-0.365,1.331-0.365c1.453,0,2.63,1.178,2.63,2.629
		C9.018,15.076,7.842,16.252,6.388,16.252z M11.961,11.415v4.837h-1.716v-4.837c0-1.051-0.666-1.051-0.666-1.051V8.962
		c1.571-0.022,2.106,1.02,2.289,1.754c0.088,0.355,0.093,0.638,0.093,0.69V11.415z M15.853,16.469c-1.534,0-2.778-1.244-2.778-2.776
		c0-1.535,1.244-2.777,2.778-2.777c1.533,0,2.775,1.242,2.775,2.777C18.628,15.225,17.386,16.469,15.853,16.469z M21.847,18.751
		v-1.4c0,0,1.557,0.182,1.557-0.701v-0.743c-0.381,0.224-0.822,0.354-1.297,0.354c-1.418,0-2.568-1.15-2.568-2.568
		c0-1.42,1.15-2.57,2.568-2.57c0.475,0,0.916,0.131,1.297,0.354v-0.224h1.662v5.396C25.066,16.65,25.429,18.751,21.847,18.751z"/>
	<circle fill="#ffffff" cx="6.197" cy="13.624" r="1.069"/>
</g>
</svg>
