<?xml version="1.0" encoding="UTF-8" standalone="no"?>
<svg
   version="1.0"
   width="137.000000pt"
   height="137.000000pt"
   viewBox="0 0 137.000000 137.000000"
   preserveAspectRatio="xMidYMid meet"
   id="svg1"
   sodipodi:docname="logo copy.svg"
   inkscape:version="1.3.2 (091e20e, 2023-11-25, custom)"
   xmlns:inkscape="http://www.inkscape.org/namespaces/inkscape"
   xmlns:sodipodi="http://sodipodi.sourceforge.net/DTD/sodipodi-0.dtd"
   xmlns="http://www.w3.org/2000/svg"
   xmlns:svg="http://www.w3.org/2000/svg">
  <defs
     id="defs1" />
  <sodipodi:namedview
     id="namedview1"
     pagecolor="#505050"
     bordercolor="#eeeeee"
     borderopacity="1"
     inkscape:showpageshadow="0"
     inkscape:pageopacity="0"
     inkscape:pagecheckerboard="0"
     inkscape:deskcolor="#505050"
     inkscape:document-units="pt"
     inkscape:zoom="2.2472628"
     inkscape:cx="92.557044"
     inkscape:cy="60.74056"
     inkscape:window-width="1920"
     inkscape:window-height="1017"
     inkscape:window-x="-8"
     inkscape:window-y="-8"
     inkscape:window-maximized="1"
     inkscape:current-layer="svg1" />
  <g
     transform="translate(0.000000,137.000000) scale(0.100000,-0.100000)"
     fill="#006EB9"
     stroke="none"
     id="g1">
    <path
       d="M585 1359 c-338 -52 -592 -358 -572 -689 9 -150 70 -260 152 -276 92 -17 218 37 385 166 216 166 320 224 422 236 46 5 64 3 102 -15 147 -72 104 -242 -113 -449 -89 -86 -200 -176 -207 -169 -3 3 14 27 38 54 178 193 300 407 244 429 -29 11 -64 -5 -153 -73 -212 -161 -262 -197 -323 -233 -164 -96 -315 -107 -413 -30 -46 37 -40 17 18 -52 149 -181 385 -272 617 -238 270 39 492 236 558 496 27 103 27 245 0 348 -57 222 -234 405 -460 474 -79 24 -214 34 -295 21z m481 -165 c17 -141 -29 -277 -114 -339 -63 -46 -127 -64 -260 -75 -202 -16 -282 -53 -326 -150 l-16 -35 6 50 c7 61 32 110 76 151 48 46 100 69 211 92 214 46 311 123 378 300 13 34 27 62 31 62 3 0 10 -25 14 -56z m-215 -45 c47 -50 37 -128 -21 -162 -72 -43 -150 2 -150 88 0 38 5 52 29 76 42 42 102 41 142 -2z"
       id="path1" />
  </g>
  <path
     style="fill:#ffffff;stroke-width:0.222493"
     d="m 99.924302,52.724357 c -2.777304,-0.77347 -5.246503,-2.656371 -6.959878,-5.307294 -2.438305,-3.772533 -2.927135,-10.697528 -1.030558,-14.599361 0.964368,-1.983998 3.933169,-4.937289 6.094768,-6.062929 5.136406,-2.674753 10.699496,-1.780031 14.875006,2.392374 2.82357,2.821479 4.12035,5.677189 4.29492,9.458151 0.12781,2.768059 -0.20687,4.387423 -1.41919,6.866708 -1.45082,2.96706 -4.73759,5.713933 -8.3153,6.949398 -1.86937,0.645537 -5.7498,0.801455 -7.539768,0.302953 z"
     id="path2"
     transform="scale(0.75)" />
  <path
     style="fill:#ffffff;stroke-width:0.222493"
     d="m 46.961487,102.01299 c -0.03638,-0.82994 0.940036,-7.653684 1.353066,-9.455946 0.928572,-4.051829 2.933412,-8.339289 5.405954,-11.560929 1.490812,-1.942478 5.059713,-5.49094 7.1313,-7.090459 5.427828,-4.190949 11.390488,-6.524359 23.695493,-9.272921 11.693196,-2.611904 18.16517,-4.716945 24.76187,-8.05392 8.93448,-4.519556 15.39187,-10.474534 20.5786,-18.977516 1.79322,-2.939741 4.53471,-8.664786 6.39258,-13.349573 1.59974,-4.033894 2.89266,-6.774895 3.61803,-7.670228 l 0.44596,-0.550456 0.48099,1.551674 c 0.98112,3.165076 1.38662,6.367009 1.51087,11.930168 0.15507,6.94281 -0.24695,10.839751 -1.72039,16.676483 -3.03081,12.005926 -9.42801,20.610921 -19.13469,25.738434 -6.76729,3.574794 -14.17797,5.261853 -29.035322,6.609964 -16.048738,1.456213 -23.732893,3.053034 -30.490521,6.336141 -4.670261,2.268987 -7.974517,5.095744 -10.671479,9.129342 -1.194664,1.786749 -1.979518,3.295422 -4.051147,7.787252 -0.141686,0.30721 -0.263084,0.40682 -0.271164,0.22249 z"
     id="path3"
     transform="scale(0.75)" />
  <path
     style="fill:#ffffff;stroke-width:0.75"
     d="M 3.3791108,82.12074 Z"
     id="path4" />
  <path
     style="fill:#ffffff;stroke-width:0.75"
     d="m 11.722595,104.669 c 0,0 2.503044,5.21468 0,0 z"
     id="path5" />
  <path
     style="fill:#ffffff;stroke-width:0.75"
     d="M 11.639159,104.33526 Z"
     id="path6" />
  <path
     style="fill:#ffffff;stroke-width:0.222493"
     d="m 100.56679,160.84652 c 0,-0.79226 2.90928,-4.58533 6.89924,-8.99512 11.82147,-13.06536 22.75992,-28.21322 28.35733,-39.27 2.84177,-5.61348 4.12519,-9.48158 4.12384,-12.42886 -0.001,-2.816603 -0.89383,-3.845936 -3.54313,-4.086166 -4.03407,-0.365796 -8.13255,2.055648 -24.60139,14.534886 -22.948532,17.3892 -30.306078,22.63644 -37.772288,26.93833 -18.881343,10.87906 -36.429117,13.34409 -49.220667,6.91427 -1.833665,-0.92171 -3.905846,-2.26697 -6.231568,-4.04554 -0.734227,-0.56149 -1.70642,-1.1876 -2.16043,-1.39135 -0.45401,-0.20375 -0.865598,-0.4781 -0.914641,-0.60967 -0.04904,-0.13157 -1.665849,-4.42512 -3.592902,-9.54123 -1.9270525,-5.11612 -3.4637874,-9.34197 -3.4149664,-9.39079 0.048821,-0.0488 0.6056471,0.69273 1.2373911,1.6479 2.2389403,3.38517 5.2862933,6.20023 8.4005623,7.7602 1.872371,0.9379 3.337308,1.3315 6.037725,1.62225 8.680124,0.93456 20.637022,-3.18796 34.122242,-11.76472 5.560067,-3.53627 7.881293,-5.1964 19.388654,-13.86666 9.132203,-6.880694 13.607292,-10.093786 19.32511,-13.875339 15.323298,-10.134258 25.290008,-14.171779 35.823988,-14.512314 4.52251,-0.146201 6.10578,0.187277 10.1146,2.130398 7.08066,3.432072 10.78102,8.236905 11.53169,14.973642 0.79744,7.156483 -3.21555,17.276773 -10.91618,27.529263 -6.90273,9.19018 -18.29428,20.5384 -32.20331,32.08079 -5.68622,4.71871 -10.7909,8.3356 -10.7909,7.64583 z"
     id="path9"
     transform="scale(0.75)" />
</svg>
